<?xml version="1.0" encoding="UTF-8"?>
<svg id="Layer_1" data-name="Layer 1" xmlns="http://www.w3.org/2000/svg" viewBox="0 0 1372.67 1461.27">
  <defs>
    <style>
      .cls-1 {
        fill: #6875ff;
        stroke: #314aff;
      }

      .cls-1, .cls-2 {
        stroke-miterlimit: 10;
        stroke-width: .71px;
      }

      .cls-2 {
        fill: #f7f7f7;
        stroke: #d8d8d8;
      }
    </style>
  </defs>
  <g>
    <rect class="cls-2" x="659.33" y="521.39" width="27" height="27"/>
    <rect class="cls-2" x="686.33" y="521.16" width="27" height="27"/>
    <rect class="cls-2" x="659.33" y="761.65" width="27" height="27"/>
    <rect class="cls-2" x="659.33" y="788.65" width="27" height="27"/>
    <rect class="cls-2" x="659.33" y="815.65" width="27" height="27"/>
    <rect class="cls-2" x="659.33" y="842.65" width="27" height="27"/>
    <rect class="cls-2" x="659.33" y="654.9" width="27" height="27"/>
    <rect class="cls-2" x="659.33" y="681.9" width="27" height="27"/>
    <rect class="cls-2" x="659.33" y="708.9" width="27" height="27"/>
    <rect class="cls-2" x="659.33" y="735.9" width="27" height="27"/>
    <rect class="cls-2" x="659.33" y="628.13" width="27" height="27"/>
    <rect class="cls-2" x="659.33" y="548.39" width="27" height="27"/>
    <rect class="cls-2" x="659.33" y="575.39" width="27" height="27"/>
    <rect class="cls-2" x="659.33" y="602.39" width="27" height="27"/>
    <rect class="cls-2" x="686.33" y="761.42" width="27" height="27"/>
    <rect class="cls-2" x="686.33" y="788.42" width="27" height="27"/>
    <rect class="cls-2" x="686.33" y="815.42" width="27" height="27"/>
    <rect class="cls-2" x="686.33" y="842.42" width="27" height="27"/>
    <rect class="cls-2" x="686.33" y="654.67" width="27" height="27"/>
    <rect class="cls-2" x="686.33" y="681.67" width="27" height="27"/>
    <rect class="cls-2" x="686.33" y="708.67" width="27" height="27"/>
    <rect class="cls-2" x="686.33" y="735.67" width="27" height="27"/>
    <rect class="cls-2" x="686.33" y="627.9" width="27" height="27"/>
    <rect class="cls-2" x="686.33" y="548.16" width="27" height="27"/>
    <rect class="cls-2" x="686.33" y="575.16" width="27" height="27"/>
    <rect class="cls-2" x="686.33" y="602.16" width="27" height="27"/>
    <rect class="cls-1" x="713.33" y="761.65" width="27" height="27"/>
    <rect class="cls-1" x="713.33" y="788.65" width="27" height="27"/>
    <rect class="cls-1" x="713.33" y="815.65" width="27" height="27"/>
    <rect class="cls-1" x="713.33" y="842.65" width="27" height="27"/>
    <rect class="cls-1" x="713.33" y="654.9" width="27" height="27"/>
    <rect class="cls-1" x="713.33" y="681.9" width="27" height="27"/>
    <rect class="cls-1" x="713.33" y="708.9" width="27" height="27"/>
    <rect class="cls-1" x="713.33" y="735.9" width="27" height="27"/>
    <rect class="cls-1" x="713.33" y="628.13" width="27" height="27"/>
    <rect class="cls-1" x="713.33" y="521.39" width="27" height="27"/>
    <rect class="cls-1" x="713.33" y="548.39" width="27" height="27"/>
    <rect class="cls-1" x="713.33" y="575.39" width="27" height="27"/>
    <rect class="cls-1" x="713.33" y="602.39" width="27" height="27"/>
    <rect class="cls-1" x="632.33" y="761.65" width="27" height="27"/>
    <rect class="cls-1" x="632.33" y="788.65" width="27" height="27"/>
    <rect class="cls-1" x="632.33" y="815.65" width="27" height="27"/>
    <rect class="cls-1" x="632.33" y="842.65" width="27" height="27"/>
    <rect class="cls-1" x="632.33" y="654.9" width="27" height="27"/>
    <rect class="cls-1" x="632.33" y="681.9" width="27" height="27"/>
    <rect class="cls-1" x="632.33" y="708.9" width="27" height="27"/>
    <rect class="cls-1" x="632.33" y="735.9" width="27" height="27"/>
    <rect class="cls-1" x="632.33" y="628.13" width="27" height="27"/>
    <rect class="cls-1" x="632.33" y="521.39" width="27" height="27"/>
    <rect class="cls-1" x="632.33" y="548.39" width="27" height="27"/>
    <rect class="cls-1" x="632.33" y="575.39" width="27" height="27"/>
    <rect class="cls-1" x="632.33" y="602.39" width="27" height="27"/>
    <rect class="cls-1" x="659.33" y="867.89" width="27" height="27"/>
    <rect class="cls-1" x="686.33" y="867.89" width="27" height="27"/>
  </g>
  <g>
    <rect class="cls-1" x="740.33" y="521.39" width="27" height="27"/>
    <rect class="cls-1" x="767.33" y="548.39" width="27" height="27"/>
    <rect class="cls-1" x="794.33" y="575.39" width="27" height="27"/>
    <rect class="cls-1" x="821.33" y="602.39" width="27" height="27"/>
    <rect class="cls-1" x="848.33" y="629.39" width="27" height="27"/>
    <rect class="cls-1" x="875.33" y="656.39" width="27" height="27"/>
    <rect class="cls-1" x="902.33" y="683.39" width="27" height="27"/>
    <rect class="cls-1" x="929.33" y="710.39" width="27" height="27"/>
    <rect class="cls-1" x="956.33" y="737.39" width="27" height="27"/>
    <rect class="cls-1" x="983.33" y="737.39" width="27" height="27"/>
    <rect class="cls-1" x="983.33" y="764.39" width="27" height="27"/>
    <rect class="cls-1" x="956.33" y="764.39" width="27" height="27"/>
  </g>
  <g>
    <rect class="cls-1" x="605.33" y="521.39" width="27" height="27" transform="translate(1237.67 1069.77) rotate(-180)"/>
    <rect class="cls-1" x="578.33" y="548.39" width="27" height="27" transform="translate(1183.67 1123.77) rotate(-180)"/>
    <rect class="cls-1" x="551.33" y="575.39" width="27" height="27" transform="translate(1129.67 1177.77) rotate(-180)"/>
    <rect class="cls-1" x="524.33" y="602.39" width="27" height="27" transform="translate(1075.67 1231.77) rotate(-180)"/>
    <rect class="cls-1" x="497.33" y="629.39" width="27" height="27" transform="translate(1021.67 1285.77) rotate(-180)"/>
    <rect class="cls-1" x="470.33" y="656.39" width="27" height="27" transform="translate(967.67 1339.77) rotate(-180)"/>
    <rect class="cls-1" x="443.33" y="683.39" width="27" height="27" transform="translate(913.67 1393.77) rotate(-180)"/>
    <rect class="cls-1" x="416.33" y="710.39" width="27" height="27" transform="translate(859.67 1447.77) rotate(-180)"/>
    <rect class="cls-1" x="389.33" y="737.39" width="27" height="27" transform="translate(805.67 1501.77) rotate(-180)"/>
    <rect class="cls-1" x="362.33" y="737.39" width="27" height="27" transform="translate(751.67 1501.77) rotate(-180)"/>
    <rect class="cls-1" x="362.33" y="764.39" width="27" height="27" transform="translate(751.67 1555.77) rotate(-180)"/>
    <rect class="cls-1" x="389.33" y="764.39" width="27" height="27" transform="translate(805.67 1555.77) rotate(-180)"/>
  </g>
  <g>
    <rect class="cls-1" x="632.33" y="1130.65" width="27" height="27"/>
    <rect class="cls-1" x="632.33" y="1157.65" width="27" height="27"/>
    <rect class="cls-1" x="632.33" y="1184.65" width="27" height="27"/>
    <rect class="cls-1" x="632.33" y="1211.65" width="27" height="27"/>
    <rect class="cls-1" x="605.42" y="1236.89" width="27" height="27"/>
    <rect class="cls-1" x="578.42" y="1263.89" width="27" height="27"/>
    <rect class="cls-1" x="551.42" y="1290.89" width="27" height="27"/>
    <rect class="cls-1" x="632.33" y="1023.9" width="27" height="27"/>
    <rect class="cls-1" x="632.33" y="1050.9" width="27" height="27"/>
    <rect class="cls-1" x="632.33" y="1077.9" width="27" height="27"/>
    <rect class="cls-1" x="632.33" y="1104.9" width="27" height="27"/>
    <rect class="cls-1" x="632.33" y="997.13" width="27" height="27"/>
    <rect class="cls-1" x="632.33" y="890.39" width="27" height="27"/>
    <rect class="cls-1" x="632.33" y="917.39" width="27" height="27"/>
    <rect class="cls-1" x="632.33" y="944.39" width="27" height="27"/>
    <rect class="cls-1" x="632.33" y="971.39" width="27" height="27"/>
  </g>
  <g>
    <rect class="cls-1" x="794.42" y="1290.89" width="27" height="27"/>
    <rect class="cls-1" x="767.42" y="1263.89" width="27" height="27"/>
    <rect class="cls-1" x="740.42" y="1236.89" width="27" height="27"/>
    <rect class="cls-1" x="713.33" y="1130.65" width="27" height="27"/>
    <rect class="cls-1" x="713.33" y="1157.65" width="27" height="27"/>
    <rect class="cls-1" x="713.33" y="1184.65" width="27" height="27"/>
    <rect class="cls-1" x="713.33" y="1211.65" width="27" height="27"/>
    <rect class="cls-1" x="713.33" y="1023.9" width="27" height="27"/>
    <rect class="cls-1" x="713.33" y="1050.9" width="27" height="27"/>
    <rect class="cls-1" x="713.33" y="1077.9" width="27" height="27"/>
    <rect class="cls-1" x="713.33" y="1104.9" width="27" height="27"/>
    <rect class="cls-1" x="713.33" y="997.13" width="27" height="27"/>
    <rect class="cls-1" x="713.33" y="890.39" width="27" height="27"/>
    <rect class="cls-1" x="713.33" y="917.39" width="27" height="27"/>
    <rect class="cls-1" x="713.33" y="944.39" width="27" height="27"/>
    <rect class="cls-1" x="713.33" y="971.39" width="27" height="27"/>
  </g>
  <g>
    <rect class="cls-2" x="713.42" y="170.39" width="27" height="27"/>
    <rect class="cls-2" x="686.42" y="170.39" width="27" height="27"/>
    <rect class="cls-2" x="659.42" y="170.39" width="27" height="27"/>
    <rect class="cls-2" x="632.42" y="170.39" width="27" height="27"/>
    <rect class="cls-2" x="605.42" y="170.39" width="27" height="27"/>
    <rect class="cls-2" x="632.42" y="197.39" width="27" height="27"/>
    <rect class="cls-2" x="605.42" y="197.39" width="27" height="27"/>
    <rect class="cls-2" x="740.42" y="170.39" width="27" height="27"/>
    <rect class="cls-2" x="713.42" y="197.39" width="27" height="27"/>
    <rect class="cls-2" x="686.42" y="197.39" width="27" height="27"/>
    <rect class="cls-2" x="659.42" y="197.39" width="27" height="27"/>
    <rect class="cls-2" x="686.42" y="224.39" width="27" height="27"/>
    <rect class="cls-2" x="659.42" y="224.39" width="27" height="27"/>
    <rect class="cls-2" x="686.42" y="251.39" width="27" height="27"/>
    <rect class="cls-2" x="659.42" y="251.39" width="27" height="27"/>
    <rect class="cls-2" x="686.42" y="278.39" width="27" height="27"/>
    <rect class="cls-2" x="659.42" y="278.39" width="27" height="27"/>
    <rect class="cls-2" x="578.42" y="197.39" width="27" height="27"/>
    <rect class="cls-2" x="551.42" y="197.39" width="27" height="27"/>
    <rect class="cls-2" x="740.42" y="197.39" width="27" height="27"/>
    <rect class="cls-2" x="767.42" y="197.39" width="27" height="27"/>
    <rect class="cls-2" x="794.42" y="197.39" width="27" height="27"/>
    <rect class="cls-2" x="740.42" y="224.39" width="27" height="27"/>
    <rect class="cls-2" x="794.42" y="224.39" width="27" height="27"/>
    <rect class="cls-2" x="767.42" y="251.39" width="27" height="27"/>
    <rect class="cls-2" x="794.42" y="251.39" width="27" height="27"/>
    <rect class="cls-2" x="740.42" y="278.39" width="27" height="27"/>
    <rect class="cls-2" x="794.42" y="278.39" width="27" height="27"/>
    <rect class="cls-2" x="551.42" y="224.39" width="27" height="27"/>
    <rect class="cls-2" x="605.42" y="224.39" width="27" height="27"/>
    <rect class="cls-2" x="551.42" y="251.39" width="27" height="27"/>
    <rect class="cls-2" x="578.42" y="251.39" width="27" height="27"/>
    <rect class="cls-2" x="551.42" y="278.39" width="27" height="27"/>
    <rect class="cls-2" x="524.42" y="278.39" width="27" height="27"/>
    <rect class="cls-2" x="605.42" y="278.39" width="27" height="27"/>
    <rect class="cls-2" x="551.42" y="305.39" width="27" height="27"/>
    <rect class="cls-2" x="524.42" y="305.39" width="27" height="27"/>
    <rect class="cls-2" x="578.42" y="305.39" width="27" height="27"/>
    <rect class="cls-2" x="605.42" y="305.39" width="27" height="27"/>
    <rect class="cls-2" x="551.42" y="332.39" width="27" height="27"/>
    <rect class="cls-2" x="524.42" y="332.39" width="27" height="27"/>
    <rect class="cls-2" x="578.42" y="332.39" width="27" height="27"/>
    <rect class="cls-2" x="551.42" y="359.39" width="27" height="27"/>
    <rect class="cls-2" x="524.42" y="359.39" width="27" height="27"/>
    <rect class="cls-2" x="578.42" y="359.39" width="27" height="27"/>
    <rect class="cls-2" x="551.42" y="386.39" width="27" height="27"/>
    <rect class="cls-2" x="578.42" y="386.39" width="27" height="27"/>
    <rect class="cls-2" x="551.42" y="413.39" width="27" height="27"/>
    <rect class="cls-2" x="578.42" y="413.39" width="27" height="27"/>
    <rect class="cls-2" x="551.42" y="440.39" width="27" height="27"/>
    <rect class="cls-2" x="578.42" y="440.39" width="27" height="27"/>
    <rect class="cls-2" x="740.42" y="359.39" width="27" height="27" transform="translate(1507.83 745.77) rotate(180)"/>
    <rect class="cls-2" x="605.42" y="413.39" width="27" height="27"/>
    <rect class="cls-2" x="605.42" y="440.39" width="27" height="27"/>
    <rect class="cls-2" x="632.42" y="413.39" width="27" height="27"/>
    <rect class="cls-2" x="659.42" y="413.39" width="27" height="27"/>
    <rect class="cls-2" x="632.42" y="440.39" width="27" height="27"/>
    <rect class="cls-2" x="659.42" y="440.39" width="27" height="27"/>
    <rect class="cls-2" x="686.42" y="413.39" width="27" height="27"/>
    <rect class="cls-2" x="686.42" y="440.39" width="27" height="27"/>
    <rect class="cls-2" x="605.42" y="359.39" width="27" height="27" transform="translate(1237.83 745.77) rotate(180)"/>
    <rect class="cls-2" x="767.42" y="386.39" width="27" height="27"/>
    <rect class="cls-2" x="740.42" y="413.39" width="27" height="27"/>
    <rect class="cls-2" x="767.42" y="413.39" width="27" height="27"/>
    <rect class="cls-2" x="740.42" y="440.39" width="27" height="27"/>
    <rect class="cls-2" x="713.42" y="413.39" width="27" height="27"/>
    <rect class="cls-2" x="713.42" y="440.39" width="27" height="27"/>
    <rect class="cls-2" x="605.42" y="467.39" width="27" height="27"/>
    <rect class="cls-2" x="632.42" y="467.39" width="27" height="27"/>
    <rect class="cls-2" x="659.42" y="467.39" width="27" height="27"/>
    <rect class="cls-2" x="686.42" y="467.39" width="27" height="27"/>
    <rect class="cls-2" x="740.42" y="467.39" width="27" height="27"/>
    <rect class="cls-2" x="713.42" y="467.39" width="27" height="27"/>
    <rect class="cls-2" x="767.42" y="440.39" width="27" height="27"/>
    <rect class="cls-2" x="794.42" y="386.39" width="27" height="27"/>
    <rect class="cls-2" x="794.42" y="413.39" width="27" height="27"/>
    <rect class="cls-2" x="794.42" y="440.39" width="27" height="27"/>
    <rect class="cls-2" x="794.42" y="359.39" width="27" height="27"/>
    <rect class="cls-2" x="767.42" y="359.39" width="27" height="27"/>
    <rect class="cls-2" x="821.42" y="359.39" width="27" height="27"/>
    <rect class="cls-2" x="605.42" y="332.39" width="27" height="27"/>
    <rect class="cls-2" x="767.42" y="305.39" width="27" height="27"/>
    <rect class="cls-2" x="740.42" y="305.39" width="27" height="27"/>
    <rect class="cls-2" x="794.42" y="305.39" width="27" height="27"/>
    <rect class="cls-2" x="821.42" y="305.39" width="27" height="27"/>
    <rect class="cls-2" x="767.42" y="332.39" width="27" height="27"/>
    <rect class="cls-2" x="740.42" y="332.39" width="27" height="27"/>
    <rect class="cls-2" x="794.42" y="332.39" width="27" height="27"/>
    <rect class="cls-2" x="821.42" y="332.39" width="27" height="27"/>
    <rect class="cls-2" x="659.42" y="305.39" width="27" height="27"/>
    <rect class="cls-2" x="632.42" y="305.39" width="27" height="27"/>
    <rect class="cls-2" x="686.42" y="305.39" width="27" height="27"/>
    <rect class="cls-2" x="713.42" y="305.39" width="27" height="27"/>
    <rect class="cls-2" x="659.42" y="332.39" width="27" height="27"/>
    <rect class="cls-2" x="632.42" y="332.39" width="27" height="27"/>
    <rect class="cls-2" x="686.42" y="332.39" width="27" height="27"/>
    <rect class="cls-2" x="713.42" y="332.39" width="27" height="27"/>
    <rect class="cls-2" x="686.42" y="386.39" width="27" height="27" transform="translate(1399.83 799.77) rotate(180)"/>
    <rect class="cls-2" x="713.42" y="386.39" width="27" height="27" transform="translate(1453.83 799.77) rotate(180)"/>
    <rect class="cls-2" x="659.42" y="386.39" width="27" height="27" transform="translate(1345.83 799.77) rotate(180)"/>
    <rect class="cls-2" x="632.42" y="386.39" width="27" height="27" transform="translate(1291.83 799.77) rotate(180)"/>
    <rect class="cls-2" x="821.42" y="278.39" width="27" height="27"/>
    <rect class="cls-2" x="632.42" y="251.39" width="27" height="27"/>
    <rect class="cls-2" x="713.42" y="251.39" width="27" height="27"/>
    <rect class="cls-1" x="632.42" y="359.39" width="27" height="27" transform="translate(1291.83 745.77) rotate(180)"/>
    <rect class="cls-1" x="659.42" y="359.39" width="27" height="27" transform="translate(1345.83 745.77) rotate(180)"/>
    <rect class="cls-1" x="686.42" y="359.39" width="27" height="27" transform="translate(1399.83 745.77) rotate(180)"/>
    <rect class="cls-1" x="713.42" y="359.39" width="27" height="27" transform="translate(1453.83 745.77) rotate(180)"/>
    <rect class="cls-1" x="767.42" y="224.39" width="27" height="27"/>
    <rect class="cls-1" x="740.42" y="251.39" width="27" height="27"/>
    <rect class="cls-1" x="767.42" y="278.39" width="27" height="27"/>
    <rect class="cls-1" x="578.42" y="224.39" width="27" height="27"/>
    <rect class="cls-1" x="605.42" y="251.39" width="27" height="27"/>
    <rect class="cls-1" x="578.42" y="278.39" width="27" height="27"/>
    <rect class="cls-1" x="740.42" y="494.39" width="27" height="27"/>
    <rect class="cls-1" x="686.42" y="494.39" width="27" height="27"/>
    <rect class="cls-1" x="659.42" y="494.39" width="27" height="27"/>
    <rect class="cls-1" x="632.42" y="494.39" width="27" height="27"/>
    <rect class="cls-1" x="605.42" y="494.39" width="27" height="27"/>
    <rect class="cls-1" x="578.42" y="170.39" width="27" height="27"/>
    <rect class="cls-1" x="551.42" y="170.39" width="27" height="27"/>
    <rect class="cls-1" x="578.42" y="467.39" width="27" height="27"/>
    <rect class="cls-1" x="551.42" y="467.39" width="27" height="27"/>
    <rect class="cls-1" x="524.42" y="197.39" width="27" height="27"/>
    <rect class="cls-1" x="524.42" y="224.39" width="27" height="27"/>
    <rect class="cls-1" x="524.42" y="251.39" width="27" height="27"/>
    <rect class="cls-1" x="632.42" y="224.39" width="27" height="27"/>
    <rect class="cls-1" x="632.42" y="278.39" width="27" height="27"/>
    <rect class="cls-1" x="605.42" y="386.39" width="27" height="27" transform="translate(1237.83 799.77) rotate(180)"/>
    <rect class="cls-1" x="740.42" y="386.39" width="27" height="27" transform="translate(1507.83 799.77) rotate(180)"/>
    <rect class="cls-1" x="713.42" y="224.39" width="27" height="27"/>
    <rect class="cls-1" x="713.42" y="278.39" width="27" height="27"/>
    <rect class="cls-1" x="524.42" y="386.39" width="27" height="27"/>
    <rect class="cls-1" x="524.42" y="413.39" width="27" height="27"/>
    <rect class="cls-1" x="524.42" y="440.39" width="27" height="27"/>
    <rect class="cls-1" x="497.42" y="278.39" width="27" height="27"/>
    <rect class="cls-1" x="497.42" y="305.39" width="27" height="27"/>
    <rect class="cls-1" x="497.42" y="332.39" width="27" height="27"/>
    <rect class="cls-1" x="767.42" y="170.39" width="27" height="27" transform="translate(1561.83 367.77) rotate(-180)"/>
    <rect class="cls-1" x="794.42" y="170.39" width="27" height="27" transform="translate(1615.83 367.77) rotate(-180)"/>
    <rect class="cls-1" x="767.42" y="467.39" width="27" height="27" transform="translate(1561.83 961.77) rotate(-180)"/>
    <rect class="cls-1" x="794.42" y="467.39" width="27" height="27" transform="translate(1615.83 961.77) rotate(-180)"/>
    <rect class="cls-1" x="821.42" y="197.39" width="27" height="27" transform="translate(1669.83 421.77) rotate(-180)"/>
    <rect class="cls-1" x="821.42" y="224.39" width="27" height="27" transform="translate(1669.83 475.77) rotate(-180)"/>
    <rect class="cls-1" x="821.42" y="251.39" width="27" height="27" transform="translate(1669.83 529.77) rotate(-180)"/>
    <rect class="cls-1" x="821.42" y="386.39" width="27" height="27" transform="translate(1669.83 799.77) rotate(-180)"/>
    <rect class="cls-1" x="821.42" y="413.39" width="27" height="27" transform="translate(1669.83 853.77) rotate(-180)"/>
    <rect class="cls-1" x="821.42" y="440.39" width="27" height="27" transform="translate(1669.83 907.77) rotate(-180)"/>
    <rect class="cls-1" x="848.42" y="278.39" width="27" height="27" transform="translate(1723.83 583.77) rotate(-180)"/>
    <rect class="cls-1" x="848.42" y="305.39" width="27" height="27" transform="translate(1723.83 637.77) rotate(-180)"/>
    <rect class="cls-1" x="848.42" y="332.39" width="27" height="27" transform="translate(1723.83 691.77) rotate(-180)"/>
    <rect class="cls-1" x="497.42" y="359.39" width="27" height="27"/>
    <rect class="cls-1" x="848.42" y="359.39" width="27" height="27" transform="translate(1723.83 745.77) rotate(-180)"/>
    <rect class="cls-1" x="713.42" y="494.39" width="27" height="27"/>
    <rect class="cls-1" x="713.42" y="143.39" width="27" height="27"/>
    <rect class="cls-1" x="686.42" y="143.39" width="27" height="27"/>
    <rect class="cls-1" x="659.42" y="143.39" width="27" height="27"/>
    <rect class="cls-1" x="632.42" y="143.39" width="27" height="27"/>
    <rect class="cls-1" x="605.42" y="143.39" width="27" height="27"/>
    <rect class="cls-1" x="740.42" y="143.39" width="27" height="27"/>
  </g>
</svg>