<?xml version="1.0" encoding="UTF-8"?>
<svg id="Layer_1" data-name="Layer 1" xmlns="http://www.w3.org/2000/svg" viewBox="0 0 1372.67 1461.27">
  <defs>
    <style>
      .cls-1 {
        fill: #6875ff;
        stroke: #314aff;
      }

      .cls-1, .cls-2 {
        stroke-miterlimit: 10;
        stroke-width: .71px;
      }

      .cls-2 {
        fill: #f7f7f7;
        stroke: #d8d8d8;
      }
    </style>
  </defs>
  <g>
    <rect class="cls-2" x="659.33" y="561" width="27" height="27"/>
    <rect class="cls-2" x="686.33" y="560.77" width="27" height="27"/>
    <rect class="cls-2" x="659.33" y="801.27" width="27" height="27"/>
    <rect class="cls-2" x="659.33" y="828.27" width="27" height="27"/>
    <rect class="cls-2" x="659.33" y="855.27" width="27" height="27"/>
    <rect class="cls-2" x="659.33" y="882.27" width="27" height="27"/>
    <rect class="cls-2" x="659.33" y="694.52" width="27" height="27"/>
    <rect class="cls-2" x="659.33" y="721.52" width="27" height="27"/>
    <rect class="cls-2" x="659.33" y="748.52" width="27" height="27"/>
    <rect class="cls-2" x="659.33" y="775.52" width="27" height="27"/>
    <rect class="cls-2" x="659.33" y="667.75" width="27" height="27"/>
    <rect class="cls-2" x="659.33" y="588" width="27" height="27"/>
    <rect class="cls-2" x="659.33" y="615" width="27" height="27"/>
    <rect class="cls-2" x="659.33" y="642" width="27" height="27"/>
    <rect class="cls-2" x="686.33" y="801.04" width="27" height="27"/>
    <rect class="cls-2" x="686.33" y="828.04" width="27" height="27"/>
    <rect class="cls-2" x="686.33" y="855.04" width="27" height="27"/>
    <rect class="cls-2" x="686.33" y="882.04" width="27" height="27"/>
    <rect class="cls-2" x="686.33" y="694.29" width="27" height="27"/>
    <rect class="cls-2" x="686.33" y="721.29" width="27" height="27"/>
    <rect class="cls-2" x="686.33" y="748.29" width="27" height="27"/>
    <rect class="cls-2" x="686.33" y="775.29" width="27" height="27"/>
    <rect class="cls-2" x="686.33" y="667.52" width="27" height="27"/>
    <rect class="cls-2" x="686.33" y="587.77" width="27" height="27"/>
    <rect class="cls-2" x="686.33" y="614.77" width="27" height="27"/>
    <rect class="cls-2" x="686.33" y="641.77" width="27" height="27"/>
    <rect class="cls-1" x="713.33" y="801.27" width="27" height="27"/>
    <rect class="cls-1" x="713.33" y="828.27" width="27" height="27"/>
    <rect class="cls-1" x="713.33" y="855.27" width="27" height="27"/>
    <rect class="cls-1" x="713.33" y="882.27" width="27" height="27"/>
    <rect class="cls-1" x="713.33" y="694.52" width="27" height="27"/>
    <rect class="cls-1" x="713.33" y="721.52" width="27" height="27"/>
    <rect class="cls-1" x="713.33" y="748.52" width="27" height="27"/>
    <rect class="cls-1" x="713.33" y="775.52" width="27" height="27"/>
    <rect class="cls-1" x="713.33" y="667.75" width="27" height="27"/>
    <rect class="cls-1" x="713.33" y="561" width="27" height="27"/>
    <rect class="cls-1" x="713.33" y="588" width="27" height="27"/>
    <rect class="cls-1" x="713.33" y="615" width="27" height="27"/>
    <rect class="cls-1" x="713.33" y="642" width="27" height="27"/>
    <rect class="cls-1" x="632.33" y="801.27" width="27" height="27"/>
    <rect class="cls-1" x="632.33" y="828.27" width="27" height="27"/>
    <rect class="cls-1" x="632.33" y="855.27" width="27" height="27"/>
    <rect class="cls-1" x="632.33" y="882.27" width="27" height="27"/>
    <rect class="cls-1" x="632.33" y="694.52" width="27" height="27"/>
    <rect class="cls-1" x="632.33" y="721.52" width="27" height="27"/>
    <rect class="cls-1" x="632.33" y="748.52" width="27" height="27"/>
    <rect class="cls-1" x="632.33" y="775.52" width="27" height="27"/>
    <rect class="cls-1" x="632.33" y="667.75" width="27" height="27"/>
    <rect class="cls-1" x="632.33" y="561" width="27" height="27"/>
    <rect class="cls-1" x="632.33" y="588" width="27" height="27"/>
    <rect class="cls-1" x="632.33" y="615" width="27" height="27"/>
    <rect class="cls-1" x="632.33" y="642" width="27" height="27"/>
    <rect class="cls-1" x="659.33" y="907.5" width="27" height="27"/>
    <rect class="cls-1" x="686.33" y="907.5" width="27" height="27"/>
  </g>
  <g>
    <rect class="cls-2" x="713.33" y="210" width="27" height="27"/>
    <rect class="cls-2" x="686.33" y="210" width="27" height="27"/>
    <rect class="cls-2" x="659.33" y="210" width="27" height="27"/>
    <rect class="cls-2" x="632.33" y="210" width="27" height="27"/>
    <rect class="cls-2" x="605.33" y="210" width="27" height="27"/>
    <rect class="cls-2" x="632.33" y="237" width="27" height="27"/>
    <rect class="cls-2" x="605.33" y="237" width="27" height="27"/>
    <rect class="cls-2" x="740.33" y="210" width="27" height="27"/>
    <rect class="cls-2" x="713.33" y="237" width="27" height="27"/>
    <rect class="cls-2" x="686.33" y="237" width="27" height="27"/>
    <rect class="cls-2" x="659.33" y="237" width="27" height="27"/>
    <rect class="cls-2" x="686.33" y="264" width="27" height="27"/>
    <rect class="cls-2" x="659.33" y="264" width="27" height="27"/>
    <rect class="cls-2" x="686.33" y="291" width="27" height="27"/>
    <rect class="cls-2" x="659.33" y="291" width="27" height="27"/>
    <rect class="cls-2" x="686.33" y="318" width="27" height="27"/>
    <rect class="cls-2" x="659.33" y="318" width="27" height="27"/>
    <rect class="cls-2" x="578.33" y="237" width="27" height="27"/>
    <rect class="cls-2" x="551.33" y="237" width="27" height="27"/>
    <rect class="cls-2" x="740.33" y="237" width="27" height="27"/>
    <rect class="cls-2" x="767.33" y="237" width="27" height="27"/>
    <rect class="cls-2" x="794.33" y="237" width="27" height="27"/>
    <rect class="cls-2" x="740.33" y="264" width="27" height="27"/>
    <rect class="cls-2" x="767.33" y="264" width="27" height="27"/>
    <rect class="cls-2" x="794.33" y="264" width="27" height="27"/>
    <rect class="cls-2" x="740.33" y="291" width="27" height="27"/>
    <rect class="cls-2" x="767.33" y="291" width="27" height="27"/>
    <rect class="cls-2" x="794.33" y="291" width="27" height="27"/>
    <rect class="cls-2" x="740.33" y="318" width="27" height="27"/>
    <rect class="cls-2" x="767.33" y="318" width="27" height="27"/>
    <rect class="cls-2" x="794.33" y="318" width="27" height="27"/>
    <rect class="cls-2" x="551.33" y="264" width="27" height="27"/>
    <rect class="cls-2" x="578.33" y="264" width="27" height="27"/>
    <rect class="cls-2" x="605.33" y="264" width="27" height="27"/>
    <rect class="cls-2" x="551.33" y="291" width="27" height="27"/>
    <rect class="cls-2" x="578.33" y="291" width="27" height="27"/>
    <rect class="cls-2" x="605.33" y="291" width="27" height="27"/>
    <rect class="cls-2" x="551.33" y="318" width="27" height="27"/>
    <rect class="cls-2" x="524.33" y="318" width="27" height="27"/>
    <rect class="cls-2" x="578.33" y="318" width="27" height="27"/>
    <rect class="cls-2" x="605.33" y="318" width="27" height="27"/>
    <rect class="cls-2" x="551.33" y="345" width="27" height="27"/>
    <rect class="cls-2" x="524.33" y="345" width="27" height="27"/>
    <rect class="cls-2" x="578.33" y="345" width="27" height="27"/>
    <rect class="cls-2" x="605.33" y="345" width="27" height="27"/>
    <rect class="cls-2" x="551.33" y="372" width="27" height="27"/>
    <rect class="cls-2" x="524.33" y="372" width="27" height="27"/>
    <rect class="cls-2" x="578.33" y="372" width="27" height="27"/>
    <rect class="cls-2" x="551.33" y="399" width="27" height="27"/>
    <rect class="cls-2" x="524.33" y="399" width="27" height="27"/>
    <rect class="cls-2" x="578.33" y="399" width="27" height="27"/>
    <rect class="cls-2" x="551.33" y="426" width="27" height="27"/>
    <rect class="cls-2" x="578.33" y="426" width="27" height="27"/>
    <rect class="cls-2" x="551.33" y="453" width="27" height="27"/>
    <rect class="cls-2" x="578.33" y="453" width="27" height="27"/>
    <rect class="cls-2" x="551.33" y="480" width="27" height="27"/>
    <rect class="cls-2" x="578.33" y="480" width="27" height="27"/>
    <rect class="cls-2" x="605.33" y="426" width="27" height="27"/>
    <rect class="cls-2" x="605.33" y="453" width="27" height="27"/>
    <rect class="cls-2" x="605.33" y="480" width="27" height="27"/>
    <rect class="cls-2" x="632.33" y="453" width="27" height="27"/>
    <rect class="cls-2" x="659.33" y="453" width="27" height="27"/>
    <rect class="cls-2" x="632.33" y="480" width="27" height="27"/>
    <rect class="cls-2" x="659.33" y="480" width="27" height="27"/>
    <rect class="cls-2" x="686.33" y="453" width="27" height="27"/>
    <rect class="cls-2" x="686.33" y="480" width="27" height="27"/>
    <rect class="cls-2" x="740.33" y="426" width="27" height="27"/>
    <rect class="cls-2" x="767.33" y="426" width="27" height="27"/>
    <rect class="cls-2" x="740.33" y="453" width="27" height="27"/>
    <rect class="cls-2" x="767.33" y="453" width="27" height="27"/>
    <rect class="cls-2" x="740.33" y="480" width="27" height="27"/>
    <rect class="cls-2" x="713.33" y="453" width="27" height="27"/>
    <rect class="cls-2" x="713.33" y="480" width="27" height="27"/>
    <rect class="cls-2" x="605.33" y="507" width="27" height="27"/>
    <rect class="cls-2" x="632.33" y="507" width="27" height="27"/>
    <rect class="cls-2" x="659.33" y="507" width="27" height="27"/>
    <rect class="cls-2" x="686.33" y="507" width="27" height="27"/>
    <rect class="cls-2" x="740.33" y="507" width="27" height="27"/>
    <rect class="cls-2" x="713.33" y="507" width="27" height="27"/>
    <rect class="cls-2" x="767.33" y="480" width="27" height="27"/>
    <rect class="cls-2" x="794.33" y="426" width="27" height="27"/>
    <rect class="cls-2" x="794.33" y="453" width="27" height="27"/>
    <rect class="cls-2" x="794.33" y="480" width="27" height="27"/>
    <rect class="cls-2" x="794.33" y="399" width="27" height="27"/>
    <rect class="cls-2" x="767.33" y="399" width="27" height="27"/>
    <rect class="cls-2" x="821.33" y="399" width="27" height="27"/>
    <rect class="cls-2" x="605.33" y="372" width="27" height="27"/>
    <rect class="cls-2" x="767.33" y="345" width="27" height="27"/>
    <rect class="cls-2" x="740.33" y="345" width="27" height="27"/>
    <rect class="cls-2" x="794.33" y="345" width="27" height="27"/>
    <rect class="cls-2" x="821.33" y="345" width="27" height="27"/>
    <rect class="cls-2" x="767.33" y="372" width="27" height="27"/>
    <rect class="cls-2" x="740.33" y="372" width="27" height="27"/>
    <rect class="cls-2" x="794.33" y="372" width="27" height="27"/>
    <rect class="cls-2" x="821.33" y="372" width="27" height="27"/>
    <rect class="cls-2" x="659.33" y="345" width="27" height="27"/>
    <rect class="cls-2" x="632.33" y="345" width="27" height="27"/>
    <rect class="cls-2" x="686.33" y="345" width="27" height="27"/>
    <rect class="cls-2" x="713.33" y="345" width="27" height="27"/>
    <rect class="cls-2" x="659.33" y="372" width="27" height="27"/>
    <rect class="cls-2" x="632.33" y="372" width="27" height="27"/>
    <rect class="cls-2" x="686.33" y="372" width="27" height="27"/>
    <rect class="cls-2" x="713.33" y="372" width="27" height="27"/>
    <rect class="cls-2" x="659.33" y="399" width="27" height="27"/>
    <rect class="cls-2" x="632.33" y="399" width="27" height="27"/>
    <rect class="cls-2" x="686.33" y="399" width="27" height="27"/>
    <rect class="cls-2" x="713.33" y="399" width="27" height="27"/>
    <rect class="cls-2" x="821.33" y="318" width="27" height="27"/>
    <rect class="cls-1" x="713.33" y="183" width="27" height="27"/>
    <rect class="cls-1" x="686.33" y="183" width="27" height="27"/>
    <rect class="cls-1" x="659.33" y="183" width="27" height="27"/>
    <rect class="cls-1" x="632.33" y="183" width="27" height="27"/>
    <rect class="cls-1" x="713.33" y="426" width="27" height="27"/>
    <rect class="cls-1" x="686.33" y="426" width="27" height="27"/>
    <rect class="cls-1" x="659.33" y="426" width="27" height="27"/>
    <rect class="cls-1" x="632.33" y="426" width="27" height="27"/>
    <rect class="cls-1" x="605.33" y="183" width="27" height="27"/>
    <rect class="cls-1" x="740.33" y="183" width="27" height="27"/>
    <rect class="cls-1" x="578.33" y="210" width="27" height="27"/>
    <rect class="cls-1" x="551.33" y="210" width="27" height="27"/>
    <rect class="cls-1" x="578.33" y="507" width="27" height="27"/>
    <rect class="cls-1" x="551.33" y="507" width="27" height="27"/>
    <rect class="cls-1" x="524.33" y="237" width="27" height="27"/>
    <rect class="cls-1" x="524.33" y="264" width="27" height="27"/>
    <rect class="cls-1" x="524.33" y="291" width="27" height="27"/>
    <rect class="cls-1" x="632.33" y="264" width="27" height="27"/>
    <rect class="cls-1" x="632.33" y="291" width="27" height="27"/>
    <rect class="cls-1" x="632.33" y="318" width="27" height="27"/>
    <rect class="cls-1" x="740.33" y="399" width="27" height="27"/>
    <rect class="cls-1" x="605.33" y="399" width="27" height="27"/>
    <rect class="cls-1" x="713.33" y="264" width="27" height="27"/>
    <rect class="cls-1" x="713.33" y="291" width="27" height="27"/>
    <rect class="cls-1" x="713.33" y="318" width="27" height="27"/>
    <rect class="cls-1" x="524.33" y="426" width="27" height="27"/>
    <rect class="cls-1" x="524.33" y="453" width="27" height="27"/>
    <rect class="cls-1" x="524.33" y="480" width="27" height="27"/>
    <rect class="cls-1" x="497.33" y="318" width="27" height="27"/>
    <rect class="cls-1" x="497.33" y="345" width="27" height="27"/>
    <rect class="cls-1" x="497.33" y="372" width="27" height="27"/>
    <rect class="cls-1" x="767.33" y="210" width="27" height="27" transform="translate(1561.67 447.01) rotate(-180)"/>
    <rect class="cls-1" x="794.33" y="210" width="27" height="27" transform="translate(1615.67 447.01) rotate(-180)"/>
    <rect class="cls-1" x="767.33" y="507" width="27" height="27" transform="translate(1561.67 1041.01) rotate(-180)"/>
    <rect class="cls-1" x="794.33" y="507" width="27" height="27" transform="translate(1615.67 1041.01) rotate(-180)"/>
    <rect class="cls-1" x="821.33" y="237" width="27" height="27" transform="translate(1669.67 501.01) rotate(-180)"/>
    <rect class="cls-1" x="821.33" y="264" width="27" height="27" transform="translate(1669.67 555.01) rotate(-180)"/>
    <rect class="cls-1" x="821.33" y="291" width="27" height="27" transform="translate(1669.67 609.01) rotate(-180)"/>
    <rect class="cls-1" x="821.33" y="426" width="27" height="27" transform="translate(1669.67 879.01) rotate(-180)"/>
    <rect class="cls-1" x="821.33" y="453" width="27" height="27" transform="translate(1669.67 933.01) rotate(-180)"/>
    <rect class="cls-1" x="821.33" y="480" width="27" height="27" transform="translate(1669.67 987.01) rotate(-180)"/>
    <rect class="cls-1" x="848.33" y="318" width="27" height="27" transform="translate(1723.67 663.01) rotate(-180)"/>
    <rect class="cls-1" x="848.33" y="345" width="27" height="27" transform="translate(1723.67 717.01) rotate(-180)"/>
    <rect class="cls-1" x="848.33" y="372" width="27" height="27" transform="translate(1723.67 771.01) rotate(-180)"/>
    <rect class="cls-1" x="497.33" y="399" width="27" height="27"/>
    <rect class="cls-1" x="848.33" y="399" width="27" height="27" transform="translate(1723.67 825.01) rotate(-180)"/>
    <rect class="cls-1" x="713.33" y="534" width="27" height="27"/>
    <rect class="cls-1" x="740.33" y="534" width="27" height="27"/>
    <rect class="cls-1" x="686.33" y="534" width="27" height="27"/>
    <rect class="cls-1" x="659.33" y="534" width="27" height="27"/>
    <rect class="cls-1" x="632.33" y="534" width="27" height="27"/>
    <rect class="cls-1" x="605.33" y="534" width="27" height="27"/>
  </g>
  <g>
    <rect class="cls-1" x="740.33" y="561" width="27" height="27"/>
    <rect class="cls-1" x="767.33" y="588" width="27" height="27"/>
    <rect class="cls-1" x="794.33" y="615" width="27" height="27"/>
    <rect class="cls-1" x="821.33" y="642" width="27" height="27"/>
    <rect class="cls-1" x="848.33" y="669" width="27" height="27"/>
    <rect class="cls-1" x="875.33" y="696" width="27" height="27"/>
    <rect class="cls-1" x="902.33" y="723" width="27" height="27"/>
    <rect class="cls-1" x="929.33" y="750" width="27" height="27"/>
    <rect class="cls-1" x="956.33" y="777" width="27" height="27"/>
    <rect class="cls-1" x="983.33" y="777" width="27" height="27"/>
    <rect class="cls-1" x="983.33" y="804" width="27" height="27"/>
    <rect class="cls-1" x="956.33" y="804" width="27" height="27"/>
  </g>
  <g>
    <rect class="cls-1" x="605.33" y="561" width="27" height="27" transform="translate(1237.67 1149.01) rotate(-180)"/>
    <rect class="cls-1" x="578.33" y="588" width="27" height="27" transform="translate(1183.67 1203.01) rotate(-180)"/>
    <rect class="cls-1" x="551.33" y="615" width="27" height="27" transform="translate(1129.67 1257.01) rotate(-180)"/>
    <rect class="cls-1" x="524.33" y="642" width="27" height="27" transform="translate(1075.67 1311.01) rotate(-180)"/>
    <rect class="cls-1" x="497.33" y="669" width="27" height="27" transform="translate(1021.67 1365.01) rotate(-180)"/>
    <rect class="cls-1" x="470.33" y="696" width="27" height="27" transform="translate(967.67 1419.01) rotate(-180)"/>
    <rect class="cls-1" x="443.33" y="723" width="27" height="27" transform="translate(913.67 1473.01) rotate(-180)"/>
    <rect class="cls-1" x="416.33" y="750" width="27" height="27" transform="translate(859.67 1527.01) rotate(-180)"/>
    <rect class="cls-1" x="389.33" y="777" width="27" height="27" transform="translate(805.67 1581.01) rotate(-180)"/>
    <rect class="cls-1" x="362.33" y="777" width="27" height="27" transform="translate(751.67 1581.01) rotate(-180)"/>
    <rect class="cls-1" x="362.33" y="804" width="27" height="27" transform="translate(751.67 1635.01) rotate(-180)"/>
    <rect class="cls-1" x="389.33" y="804" width="27" height="27" transform="translate(805.67 1635.01) rotate(-180)"/>
  </g>
  <g>
    <rect class="cls-1" x="632.33" y="1170.27" width="27" height="27"/>
    <rect class="cls-1" x="632.33" y="1197.27" width="27" height="27"/>
    <rect class="cls-1" x="632.33" y="1224.27" width="27" height="27"/>
    <rect class="cls-1" x="632.33" y="1251.27" width="27" height="27"/>
    <rect class="cls-1" x="605.33" y="1251.27" width="27" height="27"/>
    <rect class="cls-1" x="578.33" y="1251.27" width="27" height="27"/>
    <rect class="cls-1" x="551.33" y="1251.27" width="27" height="27"/>
    <rect class="cls-1" x="632.33" y="1063.52" width="27" height="27"/>
    <rect class="cls-1" x="632.33" y="1090.52" width="27" height="27"/>
    <rect class="cls-1" x="632.33" y="1117.52" width="27" height="27"/>
    <rect class="cls-1" x="632.33" y="1144.52" width="27" height="27"/>
    <rect class="cls-1" x="632.33" y="1036.75" width="27" height="27"/>
    <rect class="cls-1" x="632.33" y="930" width="27" height="27"/>
    <rect class="cls-1" x="632.33" y="957" width="27" height="27"/>
    <rect class="cls-1" x="632.33" y="984" width="27" height="27"/>
    <rect class="cls-1" x="632.33" y="1011" width="27" height="27"/>
  </g>
  <g>
    <rect class="cls-1" x="794.33" y="1251.27" width="27" height="27"/>
    <rect class="cls-1" x="767.33" y="1251.27" width="27" height="27"/>
    <rect class="cls-1" x="740.33" y="1251.27" width="27" height="27"/>
    <rect class="cls-1" x="713.33" y="1170.27" width="27" height="27"/>
    <rect class="cls-1" x="713.33" y="1197.27" width="27" height="27"/>
    <rect class="cls-1" x="713.33" y="1224.27" width="27" height="27"/>
    <rect class="cls-1" x="713.33" y="1251.27" width="27" height="27"/>
    <rect class="cls-1" x="713.33" y="1063.52" width="27" height="27"/>
    <rect class="cls-1" x="713.33" y="1090.52" width="27" height="27"/>
    <rect class="cls-1" x="713.33" y="1117.52" width="27" height="27"/>
    <rect class="cls-1" x="713.33" y="1144.52" width="27" height="27"/>
    <rect class="cls-1" x="713.33" y="1036.75" width="27" height="27"/>
    <rect class="cls-1" x="713.33" y="930" width="27" height="27"/>
    <rect class="cls-1" x="713.33" y="957" width="27" height="27"/>
    <rect class="cls-1" x="713.33" y="984" width="27" height="27"/>
    <rect class="cls-1" x="713.33" y="1011" width="27" height="27"/>
  </g>
</svg>